<svg width="23" height="25" viewBox="0 0 23 25" fill="none" xmlns="http://www.w3.org/2000/svg">
<g clip-path="url(#clip0)">
<path d="M11.7623 7.76207C8.64087 7.76207 6.12308 10.2804 6.12308 13.4026C6.12308 16.5248 8.64087 19.0431 11.7623 19.0431C14.8838 19.0431 17.4016 16.5248 17.4016 13.4026C17.4016 10.2804 14.8838 7.76207 11.7623 7.76207ZM11.7623 17.0697C9.74516 17.0697 8.09608 15.4251 8.09608 13.4026C8.09608 11.3801 9.74026 9.73551 11.7623 9.73551C13.7844 9.73551 15.4286 11.3801 15.4286 13.4026C15.4286 15.4251 13.7795 17.0697 11.7623 17.0697V17.0697ZM18.9476 7.53134C18.9476 8.26279 18.3587 8.84697 17.6323 8.84697C16.901 8.84697 16.3169 8.25788 16.3169 7.53134C16.3169 6.8048 16.9059 6.21571 17.6323 6.21571C18.3587 6.21571 18.9476 6.8048 18.9476 7.53134ZM22.6826 8.86661C22.5992 7.10425 22.1967 5.54317 20.9059 4.25699C19.62 2.97081 18.0593 2.56827 16.2973 2.47991C14.4814 2.37682 9.03842 2.37682 7.22246 2.47991C5.46541 2.56336 3.90467 2.9659 2.61388 4.25208C1.32308 5.53826 0.925532 7.09934 0.837188 8.8617C0.734121 10.6781 0.734121 16.1222 0.837188 17.9386C0.920624 19.7009 1.32308 21.262 2.61388 22.5482C3.90467 23.8344 5.4605 24.2369 7.22246 24.3253C9.03842 24.4284 14.4814 24.4284 16.2973 24.3253C18.0593 24.2418 19.62 23.8393 20.9059 22.5482C22.1918 21.262 22.5942 19.7009 22.6826 17.9386C22.7857 16.1222 22.7857 10.683 22.6826 8.86661V8.86661ZM20.3366 19.8875C19.9538 20.8496 19.2126 21.5909 18.2458 21.9787C16.7979 22.5531 13.3623 22.4206 11.7623 22.4206C10.1623 22.4206 6.72185 22.5482 5.27891 21.9787C4.31694 21.5958 3.57584 20.8546 3.18811 19.8875C2.61388 18.4393 2.74639 15.0029 2.74639 13.4026C2.74639 11.8022 2.61878 8.36097 3.18811 6.91771C3.57093 5.95553 4.31203 5.21426 5.27891 4.82644C6.72676 4.25208 10.1623 4.38462 11.7623 4.38462C13.3623 4.38462 16.8028 4.25699 18.2458 4.82644C19.2077 5.20935 19.9488 5.95062 20.3366 6.91771C20.9108 8.36588 20.7783 11.8022 20.7783 13.4026C20.7783 15.0029 20.9108 18.4442 20.3366 19.8875Z" fill="black"/>
</g>
<defs>
<clipPath id="clip0">
<rect width="22" height="24" fill="white" transform="translate(0.76355 0.910767)"/>
</clipPath>
</defs>
</svg>
