<svg width="76" height="19" viewBox="0 0 76 19" fill="none" xmlns="http://www.w3.org/2000/svg">
<path d="M29.7119 14.2803C29.6846 14.139 29.6595 13.9954 29.6367 13.8496C29.6139 13.7038 29.5957 13.5534 29.582 13.3984C29.3724 13.7083 29.1217 13.9453 28.8301 14.1094C28.5384 14.278 28.2194 14.3623 27.873 14.3623C27.6953 14.3623 27.513 14.3327 27.3262 14.2734C27.1393 14.2188 26.9684 14.1208 26.8135 13.9795C26.6631 13.8382 26.5378 13.6468 26.4375 13.4053C26.3418 13.1592 26.2939 12.8493 26.2939 12.4756C26.2939 12.1657 26.3395 11.8968 26.4307 11.6689C26.5218 11.4365 26.6403 11.2337 26.7861 11.0605C26.932 10.8874 27.096 10.737 27.2783 10.6094C27.4606 10.4818 27.6406 10.3678 27.8184 10.2676C28.0007 10.1673 28.1738 10.0739 28.3379 9.9873C28.502 9.90072 28.6364 9.81413 28.7412 9.72754C28.9417 9.56803 29.1149 9.39941 29.2607 9.22168C29.4111 9.03939 29.5319 8.85026 29.623 8.6543C29.6048 8.33984 29.5706 8.08236 29.5205 7.88184C29.4749 7.67676 29.4134 7.51497 29.3359 7.39648C29.2585 7.27344 29.1628 7.18913 29.0488 7.14355C28.9395 7.09342 28.8141 7.06836 28.6729 7.06836C28.4632 7.06836 28.2855 7.11393 28.1396 7.20508C27.9984 7.29622 27.8822 7.4056 27.791 7.5332C27.9049 7.60612 27.9915 7.68359 28.0508 7.76562C28.1146 7.84766 28.1624 7.92741 28.1943 8.00488C28.2308 8.09147 28.2513 8.18034 28.2559 8.27148C28.2559 8.58138 28.167 8.81836 27.9893 8.98242C27.8161 9.14648 27.5928 9.22852 27.3193 9.22852C27.1781 9.22852 27.0482 9.19661 26.9297 9.13281C26.8112 9.06445 26.7064 8.97103 26.6152 8.85254C26.5286 8.73405 26.4603 8.59277 26.4102 8.42871C26.36 8.26465 26.335 8.08691 26.335 7.89551C26.335 7.7041 26.3783 7.5013 26.4648 7.28711C26.5514 7.07292 26.6904 6.87467 26.8818 6.69238C27.0732 6.50553 27.3193 6.35286 27.6201 6.23438C27.9209 6.11133 28.2855 6.0498 28.7139 6.0498C29.1423 6.0498 29.5091 6.13411 29.8145 6.30273C30.1198 6.4668 30.3704 6.68783 30.5664 6.96582C30.7624 7.23926 30.9036 7.55599 30.9902 7.91602C31.0814 8.27604 31.127 8.64746 31.127 9.03027C31.127 9.31738 31.1247 9.62956 31.1201 9.9668C31.1156 10.304 31.1133 10.6504 31.1133 11.0059C31.1133 11.3021 31.1156 11.5983 31.1201 11.8945C31.1247 12.1908 31.1338 12.4779 31.1475 12.7559C31.1611 13.0293 31.1794 13.2891 31.2021 13.5352C31.2249 13.7767 31.2546 13.9932 31.291 14.1846L29.7119 14.2803ZM29.6094 10.2744C29.4499 10.4658 29.279 10.6299 29.0967 10.7666C28.96 10.8623 28.8118 10.9694 28.6523 11.0879C28.4974 11.2064 28.3516 11.3317 28.2148 11.4639C28.0827 11.596 27.971 11.735 27.8799 11.8809C27.7933 12.0221 27.75 12.168 27.75 12.3184C27.75 12.5234 27.8001 12.6989 27.9004 12.8447C28.0007 12.9906 28.1419 13.0635 28.3242 13.0635C28.4928 13.0635 28.6432 13.0179 28.7754 12.9268C28.9076 12.8356 29.0238 12.724 29.124 12.5918C29.2288 12.4551 29.3154 12.3092 29.3838 12.1543C29.4567 11.9993 29.5137 11.8581 29.5547 11.7305L29.6094 10.2744Z" fill="#8A2BE2"/>
<path d="M37.416 3.73926C37.3112 5.06999 37.2314 6.3916 37.1768 7.7041C37.1221 9.01204 37.0947 10.3314 37.0947 11.6621C37.0947 12.5508 37.1084 13.4417 37.1357 14.335L35.5771 14.3623L35.625 13.0088C35.4427 13.3506 35.2559 13.6126 35.0645 13.7949C34.873 13.9772 34.6976 14.1139 34.5381 14.2051C34.3512 14.3099 34.1667 14.3714 33.9844 14.3896C33.752 14.3896 33.5173 14.3236 33.2803 14.1914C33.0433 14.0592 32.8291 13.8314 32.6377 13.5078C32.4463 13.1842 32.2891 12.7536 32.166 12.2158C32.043 11.6735 31.9814 10.9945 31.9814 10.1787C31.9814 9.64095 32.0133 9.16699 32.0771 8.75684C32.141 8.34212 32.2275 7.9821 32.3369 7.67676C32.4463 7.37142 32.5739 7.11621 32.7197 6.91113C32.8701 6.7015 33.0296 6.53288 33.1982 6.40527C33.3714 6.27767 33.5514 6.18652 33.7383 6.13184C33.9251 6.07715 34.1097 6.0498 34.292 6.0498C34.415 6.05892 34.5472 6.08854 34.6885 6.13867C34.807 6.18424 34.9414 6.2526 35.0918 6.34375C35.2467 6.43034 35.404 6.56022 35.5635 6.7334C35.5361 5.72168 35.4951 4.71452 35.4404 3.71191L37.416 3.73926ZM35.6523 10.7256C35.6523 9.84603 35.6387 8.96419 35.6113 8.08008C35.5612 8.00716 35.5065 7.93197 35.4473 7.85449C35.3926 7.77702 35.3311 7.70638 35.2627 7.64258C35.1943 7.57422 35.1214 7.51953 35.0439 7.47852C34.9665 7.4375 34.8844 7.41699 34.7979 7.41699C34.6702 7.41699 34.5404 7.46256 34.4082 7.55371C34.2806 7.6403 34.1644 7.79297 34.0596 8.01172C33.9548 8.22591 33.8682 8.51302 33.7998 8.87305C33.736 9.23307 33.7041 9.68652 33.7041 10.2334C33.7041 10.7393 33.7269 11.1585 33.7725 11.4912C33.818 11.8239 33.8796 12.0905 33.957 12.291C34.0345 12.487 34.1234 12.626 34.2236 12.708C34.3239 12.7855 34.431 12.8242 34.5449 12.8242C34.7181 12.8242 34.8662 12.7673 34.9893 12.6533C35.1169 12.5348 35.2217 12.3936 35.3037 12.2295C35.3903 12.0654 35.4609 11.8968 35.5156 11.7236C35.5703 11.5459 35.6159 11.3955 35.6523 11.2725V10.7256Z" fill="#8A2BE2"/>
<path d="M40.6016 14.3896C40.1504 14.3896 39.7607 14.2917 39.4326 14.0957C39.1091 13.8997 38.8402 13.6263 38.626 13.2754C38.4163 12.9245 38.2614 12.5075 38.1611 12.0244C38.0609 11.5413 38.0107 11.015 38.0107 10.4453C38.0107 9.7845 38.07 9.17839 38.1885 8.62695C38.307 8.07552 38.4801 7.60156 38.708 7.20508C38.9404 6.80859 39.2253 6.50098 39.5625 6.28223C39.9043 6.05892 40.2962 5.94727 40.7383 5.94727C41.1849 5.94727 41.57 6.04069 41.8936 6.22754C42.2171 6.41439 42.4837 6.67643 42.6934 7.01367C42.9076 7.35091 43.0648 7.75423 43.165 8.22363C43.2653 8.69303 43.3154 9.21029 43.3154 9.77539C43.3154 10.0671 43.2972 10.3838 43.2607 10.7256C43.2288 11.0674 43.1719 11.4092 43.0898 11.751C43.0124 12.0928 42.9076 12.4232 42.7754 12.7422C42.6432 13.0566 42.4769 13.3369 42.2764 13.583C42.0758 13.8291 41.8366 14.0251 41.5586 14.1709C41.2852 14.3167 40.9661 14.3896 40.6016 14.3896ZM41.668 9.26953C41.668 8.92318 41.652 8.61328 41.6201 8.33984C41.5882 8.06185 41.5358 7.82715 41.4629 7.63574C41.3945 7.44434 41.3057 7.2985 41.1963 7.19824C41.0915 7.09342 40.9639 7.04102 40.8135 7.04102C40.6494 7.04102 40.4967 7.1276 40.3555 7.30078C40.2142 7.47396 40.0889 7.72461 39.9795 8.05273C39.8747 8.38086 39.7904 8.7819 39.7266 9.25586C39.6673 9.72526 39.6377 10.2562 39.6377 10.8486C39.6377 11.2314 39.6559 11.5755 39.6924 11.8809C39.7288 12.1816 39.7835 12.4391 39.8564 12.6533C39.9294 12.863 40.0182 13.0247 40.123 13.1387C40.2324 13.248 40.36 13.3027 40.5059 13.3027C40.6517 13.3027 40.7816 13.2435 40.8955 13.125C41.0094 13.002 41.1074 12.8379 41.1895 12.6328C41.276 12.4277 41.349 12.1908 41.4082 11.9219C41.472 11.6484 41.5221 11.3636 41.5586 11.0674C41.5951 10.7666 41.6224 10.4613 41.6406 10.1514C41.6589 9.84147 41.668 9.54753 41.668 9.26953Z" fill="#8A2BE2"/>
<path d="M46.5215 3.60938C46.485 4.07878 46.4554 4.54134 46.4326 4.99707C46.4098 5.44824 46.387 5.90169 46.3643 6.35742C46.5648 6.34831 46.763 6.34147 46.959 6.33691C47.1549 6.3278 47.3555 6.31641 47.5605 6.30273L47.5879 8.05273C47.3691 8.01628 47.1527 7.98665 46.9385 7.96387C46.7243 7.94108 46.5146 7.92285 46.3096 7.90918C46.2959 8.29655 46.2868 8.67936 46.2822 9.05762C46.2822 9.43587 46.2822 9.81868 46.2822 10.2061C46.2822 10.8988 46.2891 11.5869 46.3027 12.2705C46.321 12.9541 46.3483 13.6423 46.3848 14.335L44.6006 14.3076C44.6598 13.2367 44.7077 12.168 44.7441 11.1016C44.7852 10.0306 44.8125 8.9528 44.8262 7.86816C44.6348 7.87728 44.4434 7.88867 44.252 7.90234C44.0605 7.91146 43.8646 7.92285 43.6641 7.93652L43.7188 6.31641C43.9056 6.33008 44.0902 6.34147 44.2725 6.35059C44.4593 6.35514 44.6439 6.36198 44.8262 6.37109C44.8262 5.91536 44.8216 5.46191 44.8125 5.01074C44.8034 4.55501 44.7943 4.09701 44.7852 3.63672L46.5215 3.60938Z" fill="#8A2BE2"/>
<path d="M53.002 12.5303C53.002 12.7992 52.9404 13.0521 52.8174 13.2891C52.6943 13.526 52.528 13.7311 52.3184 13.9043C52.1087 14.0775 51.8626 14.2142 51.5801 14.3145C51.2975 14.4147 50.9967 14.4648 50.6777 14.4648C50.4635 14.4648 50.2471 14.4352 50.0283 14.376C49.8096 14.3167 49.5999 14.2188 49.3994 14.082C49.1989 13.9453 49.0098 13.7653 48.832 13.542C48.6543 13.3187 48.4993 13.0452 48.3672 12.7217C48.2396 12.3981 48.137 12.0199 48.0596 11.5869C47.9867 11.1494 47.9502 10.6481 47.9502 10.083C47.9502 9.5498 47.9867 9.07812 48.0596 8.66797C48.137 8.25781 48.2396 7.90006 48.3672 7.59473C48.4993 7.28939 48.652 7.03418 48.8252 6.8291C48.9984 6.61947 49.1829 6.45085 49.3789 6.32324C49.5794 6.19108 49.7845 6.09766 49.9941 6.04297C50.2083 5.98828 50.418 5.96094 50.623 5.96094C50.9284 5.96094 51.2178 6.01107 51.4912 6.11133C51.7646 6.20703 52.0039 6.35059 52.209 6.54199C52.4141 6.7334 52.5758 6.97038 52.6943 7.25293C52.8174 7.53092 52.8789 7.85221 52.8789 8.2168C52.8789 8.54492 52.8105 8.8776 52.6738 9.21484C52.5417 9.54753 52.3434 9.86426 52.0791 10.165C51.8148 10.4613 51.4867 10.7324 51.0947 10.9785C50.7074 11.2201 50.2607 11.4115 49.7549 11.5527C49.7822 11.8353 49.821 12.0928 49.8711 12.3252C49.9258 12.5576 49.9919 12.7559 50.0693 12.9199C50.1514 13.084 50.2448 13.2116 50.3496 13.3027C50.459 13.3939 50.5843 13.4395 50.7256 13.4395C50.8167 13.4349 50.9033 13.4189 50.9854 13.3916C51.0583 13.3688 51.1312 13.3324 51.2041 13.2822C51.2816 13.2321 51.3454 13.1592 51.3955 13.0635C51.277 13.0088 51.1859 12.9382 51.1221 12.8516C51.0583 12.765 51.0104 12.6829 50.9785 12.6055C50.9421 12.5143 50.9216 12.4186 50.917 12.3184C50.917 12.0996 50.9603 11.9219 51.0469 11.7852C51.1335 11.6484 51.236 11.5413 51.3545 11.4639C51.473 11.3864 51.5938 11.334 51.7168 11.3066C51.8398 11.2747 51.9378 11.2588 52.0107 11.2588C52.0882 11.2588 52.1816 11.2747 52.291 11.3066C52.4049 11.3385 52.5143 11.4001 52.6191 11.4912C52.724 11.5824 52.8128 11.7122 52.8857 11.8809C52.9632 12.0449 53.002 12.2614 53.002 12.5303ZM51.3135 8.23047C51.3135 8.06641 51.2975 7.91146 51.2656 7.76562C51.2383 7.61523 51.195 7.48535 51.1357 7.37598C51.0811 7.2666 51.0104 7.18001 50.9238 7.11621C50.8418 7.04785 50.7461 7.01367 50.6367 7.01367C50.4499 7.01367 50.2972 7.10026 50.1787 7.27344C50.0602 7.44206 49.9645 7.66764 49.8916 7.9502C49.8187 8.23275 49.7686 8.55859 49.7412 8.92773C49.7139 9.29688 49.7002 9.68197 49.7002 10.083V10.582C49.9326 10.459 50.1468 10.3132 50.3428 10.1445C50.5433 9.97591 50.7142 9.79134 50.8555 9.59082C51.0013 9.38574 51.113 9.16927 51.1904 8.94141C51.2725 8.71354 51.3135 8.47656 51.3135 8.23047Z" fill="#8A2BE2"/>
<path d="M53.9043 13.1865C53.9043 12.8356 53.8952 12.4847 53.877 12.1338C53.8633 11.7829 53.8473 11.432 53.8291 11.0811C53.8109 10.7256 53.7926 10.3701 53.7744 10.0146C53.7607 9.65462 53.7539 9.29004 53.7539 8.9209C53.7539 8.53353 53.7653 8.1416 53.7881 7.74512C53.8154 7.34408 53.8656 6.95898 53.9385 6.58984C54.0114 6.21615 54.1117 5.86751 54.2393 5.54395C54.3669 5.21582 54.5332 4.93099 54.7383 4.68945C54.9434 4.44792 55.194 4.25651 55.4902 4.11523C55.7865 3.97396 56.1351 3.90332 56.5361 3.90332C56.9189 3.90332 57.2516 3.96484 57.5342 4.08789C57.8167 4.20638 58.056 4.37044 58.252 4.58008C58.4525 4.78971 58.6143 5.03581 58.7373 5.31836C58.8649 5.60091 58.9629 5.90625 59.0312 6.23438C59.1042 6.5625 59.1543 6.9043 59.1816 7.25977C59.209 7.61523 59.2227 7.96842 59.2227 8.31934C59.2227 8.41048 59.2204 8.49023 59.2158 8.55859C59.2158 8.62695 59.2135 8.70215 59.209 8.78418C59.209 8.86165 59.2044 8.95508 59.1953 9.06445C59.1908 9.17383 59.1839 9.31738 59.1748 9.49512C59.1657 9.66829 59.1543 9.88249 59.1406 10.1377C59.1315 10.3929 59.1201 10.7074 59.1064 11.0811C59.0928 11.4548 59.0768 11.8968 59.0586 12.4072C59.0404 12.9131 59.0221 13.5055 59.0039 14.1846L56.96 14.1094C57.0374 13.5898 57.1058 13.0703 57.165 12.5508C57.2288 12.0267 57.2812 11.5391 57.3223 11.0879C56.9714 11.0605 56.6455 11.0469 56.3447 11.0469C56.1898 11.0469 56.0439 11.0492 55.9072 11.0537C55.7705 11.0583 55.6497 11.0651 55.5449 11.0742C55.5586 11.3112 55.5745 11.5618 55.5928 11.8262C55.611 12.0905 55.6315 12.3571 55.6543 12.626C55.6771 12.8949 55.7021 13.1615 55.7295 13.4258C55.7568 13.6855 55.7887 13.9339 55.8252 14.1709L53.8906 14.2256C53.8997 14.057 53.9043 13.8861 53.9043 13.7129C53.9043 13.5352 53.9043 13.3597 53.9043 13.1865ZM55.4629 9.63184C55.5996 9.64095 55.7341 9.64551 55.8662 9.64551C55.9984 9.64551 56.1283 9.64551 56.2559 9.64551C56.7435 9.64551 57.1354 9.63184 57.4316 9.60449C57.459 9.28092 57.4863 8.95508 57.5137 8.62695C57.5456 8.29883 57.5615 7.94792 57.5615 7.57422C57.5615 6.78581 57.4795 6.18652 57.3154 5.77637C57.1559 5.36165 56.9189 5.1543 56.6045 5.1543C56.4313 5.1543 56.2718 5.21582 56.126 5.33887C55.9801 5.46191 55.8525 5.65332 55.7432 5.91309C55.6383 6.16829 55.554 6.49186 55.4902 6.88379C55.431 7.27572 55.4014 7.73828 55.4014 8.27148C55.4014 8.45833 55.4059 8.65885 55.415 8.87305C55.4287 9.08268 55.4447 9.33561 55.4629 9.63184Z" fill="#8A2BE2"/>
<path d="M66.0723 15.5244C66.0814 15.57 66.0882 15.6133 66.0928 15.6543C66.0973 15.6953 66.0996 15.7363 66.0996 15.7773C66.0996 15.9551 66.0631 16.1191 65.9902 16.2695C65.9173 16.4199 65.8148 16.5475 65.6826 16.6523C65.5505 16.7617 65.391 16.846 65.2041 16.9053C65.0218 16.9645 64.8167 16.9941 64.5889 16.9941C64.3519 16.9941 64.1195 16.9531 63.8916 16.8711C63.6637 16.7891 63.4587 16.6706 63.2764 16.5156C63.0986 16.3652 62.9551 16.1807 62.8457 15.9619C62.7363 15.7432 62.6816 15.4993 62.6816 15.2305C62.6816 15.153 62.6885 15.0322 62.7021 14.8682C62.7204 14.7041 62.7659 14.5264 62.8389 14.335C62.374 14.2666 61.9661 14.0843 61.6152 13.7881C61.2689 13.4873 60.9795 13.1045 60.7471 12.6396C60.5146 12.1702 60.3392 11.6348 60.2207 11.0332C60.1068 10.4271 60.0498 9.78223 60.0498 9.09863C60.0498 8.37402 60.1136 7.69271 60.2412 7.05469C60.3734 6.41667 60.5716 5.86068 60.8359 5.38672C61.1003 4.91276 61.4329 4.53906 61.834 4.26562C62.235 3.98763 62.7044 3.84863 63.2422 3.84863C63.7982 3.84863 64.2767 3.98763 64.6777 4.26562C65.0833 4.53906 65.416 4.91276 65.6758 5.38672C65.9355 5.86068 66.127 6.41667 66.25 7.05469C66.373 7.69271 66.4346 8.37402 66.4346 9.09863C66.4346 9.69564 66.3867 10.263 66.291 10.8008C66.1999 11.3385 66.0631 11.8285 65.8809 12.2705C65.7031 12.7126 65.4798 13.0954 65.2109 13.4189C64.9421 13.738 64.6322 13.9772 64.2812 14.1367C64.1354 14.2415 64.0101 14.3714 63.9053 14.5264C63.8005 14.6859 63.748 14.8978 63.748 15.1621C63.748 15.1803 63.748 15.21 63.748 15.251C63.7526 15.292 63.7617 15.3398 63.7754 15.3945C63.7891 15.4538 63.8073 15.5176 63.8301 15.5859C63.8574 15.6589 63.8939 15.7318 63.9395 15.8047C63.9531 15.6452 63.9919 15.4948 64.0557 15.3535C64.1195 15.2168 64.2015 15.096 64.3018 14.9912C64.402 14.891 64.5182 14.8112 64.6504 14.752C64.7826 14.6973 64.9284 14.6699 65.0879 14.6699C65.3158 14.6608 65.5186 14.7246 65.6963 14.8613C65.874 15.0026 65.9994 15.2236 66.0723 15.5244ZM64.6436 9.09863C64.6436 8.53353 64.6208 8.0026 64.5752 7.50586C64.5296 7.00456 64.4521 6.56934 64.3428 6.2002C64.238 5.8265 64.0944 5.53255 63.9121 5.31836C63.7344 5.10417 63.5111 4.99707 63.2422 4.99707C62.9824 4.99707 62.7637 5.10417 62.5859 5.31836C62.4082 5.53255 62.2646 5.8265 62.1553 6.2002C62.0459 6.56934 61.9661 7.00456 61.916 7.50586C61.8659 8.0026 61.8408 8.53353 61.8408 9.09863C61.8408 9.66829 61.8659 10.2038 61.916 10.7051C61.9661 11.2018 62.0459 11.637 62.1553 12.0107C62.2692 12.3799 62.415 12.6738 62.5928 12.8926C62.7705 13.1068 62.987 13.2139 63.2422 13.2139C63.4928 13.2139 63.707 13.1068 63.8848 12.8926C64.0625 12.6738 64.2083 12.3799 64.3223 12.0107C64.4362 11.637 64.5182 11.2018 64.5684 10.7051C64.6185 10.2038 64.6436 9.66829 64.6436 9.09863Z" fill="#8A2BE2"/>
<path d="M72.7168 9.50879C72.7168 9.89616 72.7031 10.2881 72.6758 10.6846C72.653 11.0811 72.6051 11.4639 72.5322 11.833C72.4639 12.2021 72.3636 12.5508 72.2314 12.8789C72.1038 13.2025 71.9375 13.485 71.7324 13.7266C71.5273 13.9681 71.279 14.1572 70.9873 14.2939C70.6956 14.4352 70.3493 14.5059 69.9482 14.5059C69.5654 14.5059 69.2327 14.4443 68.9502 14.3213C68.6676 14.2028 68.4261 14.041 68.2256 13.8359C68.0251 13.6263 67.861 13.3802 67.7334 13.0977C67.6104 12.8105 67.5124 12.5052 67.4395 12.1816C67.3665 11.8535 67.3164 11.5117 67.2891 11.1562C67.2617 10.8008 67.248 10.4476 67.248 10.0967C67.248 10.0055 67.248 9.92578 67.248 9.85742C67.2526 9.78906 67.2572 9.71615 67.2617 9.63867C67.2663 9.55664 67.2708 9.46094 67.2754 9.35156C67.2845 9.23763 67.2936 9.09408 67.3027 8.9209C67.3119 8.74316 67.321 8.52669 67.3301 8.27148C67.3438 8.01172 67.3574 7.69499 67.3711 7.32129C67.3893 6.94759 67.4053 6.50781 67.4189 6.00195C67.4372 5.49154 67.4577 4.89909 67.4805 4.22461L69.5244 4.2998C69.4561 5.00163 69.3923 5.60547 69.333 6.11133C69.2738 6.61263 69.2214 7.05469 69.1758 7.4375C69.1302 7.82031 69.0892 8.15755 69.0527 8.44922C69.0163 8.74089 68.9867 9.02344 68.9639 9.29688C68.9411 9.57031 68.9229 9.85059 68.9092 10.1377C68.9001 10.4248 68.8955 10.7552 68.8955 11.1289C68.8955 11.8262 68.9707 12.3548 69.1211 12.7148C69.2715 13.0749 69.5244 13.2549 69.8799 13.2549C70.2673 13.2549 70.5635 13.0247 70.7686 12.5645C70.9782 12.0996 71.083 11.3704 71.083 10.377C71.083 9.29232 71.0443 8.24642 70.9668 7.23926C70.8893 6.22754 70.7868 5.22949 70.6592 4.24512L72.5938 4.18359C72.5846 4.36133 72.5801 4.53678 72.5801 4.70996C72.5801 4.87858 72.5801 5.04948 72.5801 5.22266C72.5801 5.70117 72.5869 6.16602 72.6006 6.61719C72.6143 7.0638 72.6302 7.47624 72.6484 7.85449C72.6667 8.22819 72.6826 8.55859 72.6963 8.8457C72.71 9.13281 72.7168 9.35384 72.7168 9.50879Z" fill="#8A2BE2"/>
<path d="M75.6426 14.0684L73.8379 14.2529C73.847 13.9476 73.8538 13.6309 73.8584 13.3027C73.8675 12.9701 73.8744 12.6396 73.8789 12.3115C73.8835 11.9834 73.888 11.6621 73.8926 11.3477C73.8971 11.0286 73.8994 10.7279 73.8994 10.4453C73.904 9.77995 73.9062 9.12598 73.9062 8.4834C73.9017 7.90918 73.8949 7.35319 73.8857 6.81543C73.8812 6.58756 73.8744 6.35286 73.8652 6.11133C73.8607 5.86979 73.8538 5.63281 73.8447 5.40039C73.8356 5.16797 73.8242 4.94922 73.8105 4.74414C73.8014 4.53451 73.7878 4.34766 73.7695 4.18359L75.4922 4.10156C75.4831 4.38411 75.474 4.67578 75.4648 4.97656C75.4603 5.27279 75.4557 5.56901 75.4512 5.86523C75.4466 6.1569 75.4421 6.43945 75.4375 6.71289C75.4375 6.98633 75.4375 7.24154 75.4375 7.47852C75.4375 8.66797 75.4512 9.80273 75.4785 10.8828C75.5104 11.9583 75.5651 13.0202 75.6426 14.0684Z" fill="#8A2BE2"/>
<path d="M6.43945 2.0832H3.85293L2.12711 0.285471C1.8152 -0.0394332 1.26642 0.181349 1.26642 0.631738V5.04692C1.26642 7.27897 3.00342 9.08835 5.14619 9.08835C7.28896 9.08835 9.02596 7.27897 9.02596 5.04692V0.631737C9.02596 0.181349 8.47718 -0.0394327 8.16527 0.285472L6.43945 2.0832ZM3.52962 5.45106C3.17236 5.45106 2.88299 5.14964 2.88299 4.77749C2.88299 4.40534 3.17236 4.10392 3.52962 4.10392C3.88688 4.10392 4.17625 4.40534 4.17625 4.77749C4.17625 5.14964 3.88688 5.45106 3.52962 5.45106ZM6.76276 5.45106C6.4055 5.45106 6.11613 5.14964 6.11613 4.77749C6.11613 4.40534 6.4055 4.10392 6.76276 4.10392C7.12002 4.10392 7.40939 4.40534 7.40939 4.77749C7.40939 5.14964 7.12002 5.45106 6.76276 5.45106Z" fill="#8A2BE2"/>
<path d="M21.2195 9.18031H18.2635L17.9328 8.43682C17.81 8.16066 17.6213 7.92841 17.3879 7.76608C17.1544 7.60374 16.8853 7.51775 16.6109 7.51773H14.1343L12.8743 6.10038C12.4082 5.57667 11.6124 5.94763 11.6124 6.688C11.6124 6.688 9.74404 12.0746 11.6124 14.473C12.5335 15.6553 14.49 16.275 15.9004 16.5808C16.7642 16.7682 17.5245 16.0842 17.5245 15.2003V14.9993H19.0025C20.6352 14.9993 21.9585 13.5108 21.9585 11.6742V10.0116C21.9585 9.55231 21.6278 9.18031 21.2195 9.18031ZM16.0465 11.6742C15.6382 11.6742 15.3074 11.3022 15.3074 10.8429C15.3074 10.3836 15.6382 10.0116 16.0465 10.0116C16.4548 10.0116 16.7855 10.3836 16.7855 10.8429C16.7855 11.3022 16.4548 11.6742 16.0465 11.6742Z" fill="#8A2BE2"/>
<path d="M10.026 0.490903V5.04701C10.026 7.79248 7.87932 10.0884 5.14618 10.0884C3.51299 10.0884 2.08922 9.26862 1.20775 8.02296C0.997263 8.82487 0.92641 9.66361 1.02479 10.5271C1.6312 15.8495 2.79407 19.1114 8.11648 18.505C9.86615 18.3057 11.8625 17.5356 13.7326 16.4024C11.4773 16.4024 9.72495 14.438 9.98154 12.1972L10.6124 6.68801C10.6124 5.94137 11.0257 5.30284 11.6463 5.01371C12.2865 4.71545 13.0825 4.83009 13.6216 5.43599L14.5833 6.51774H16.6109C17.0972 6.51778 17.5641 6.67068 17.9587 6.94504C18.3517 7.21829 18.6544 7.59852 18.8466 8.03069L18.9131 8.18032H20.4022C20.479 7.68122 20.4935 7.1823 20.4372 6.68827C19.8308 1.36585 16.8869 -0.391569 11.5645 0.214843C11.0542 0.272981 10.5393 0.365835 10.026 0.490903Z" fill="#8A2BE2"/>
</svg>
