<svg width="22" height="25" viewBox="0 0 22 25" fill="none" xmlns="http://www.w3.org/2000/svg">
<path d="M19.7386 8.48592C19.7525 8.68279 19.7525 8.8797 19.7525 9.07656C19.7525 15.0812 15.2157 22 6.92386 22C4.36928 22 1.9962 21.2547 0 19.961C0.362957 20.0031 0.711906 20.0172 1.08883 20.0172C3.19666 20.0172 5.13704 19.3 6.68654 18.0766C4.7043 18.0344 3.04313 16.7266 2.47079 14.9266C2.75 14.9687 3.02917 14.9969 3.32234 14.9969C3.72715 14.9969 4.132 14.9406 4.50888 14.8422C2.4429 14.4203 0.893363 12.5922 0.893363 10.3844V10.3281C1.49359 10.6656 2.19162 10.8766 2.93141 10.9047C1.71695 10.089 0.921293 8.69685 0.921293 7.12184C0.921293 6.27811 1.1446 5.50467 1.53549 4.82967C3.75504 7.58591 7.09135 9.38588 10.8324 9.58279C10.7626 9.24529 10.7207 8.89376 10.7207 8.54219C10.7207 6.03904 12.7309 4 15.2296 4C16.5278 4 17.7004 4.54844 18.524 5.43437C19.543 5.23751 20.5202 4.8578 21.3857 4.3375C21.0506 5.39221 20.3387 6.27815 19.4035 6.84061C20.3109 6.74222 21.1903 6.48904 21.9999 6.13752C21.3858 7.03748 20.618 7.83901 19.7386 8.48592V8.48592Z" fill="black"/>
</svg>
